<svg width="135" height="93" viewBox="0 0 135 93" fill="none" xmlns="http://www.w3.org/2000/svg">
<path d="M134.847 31.356V60.8163C134.734 64.0969 133.375 67.2113 131.048 69.5263L108.906 91.6688C108.489 92.0845 107.959 92.3677 107.382 92.4827C106.805 92.5976 106.207 92.5392 105.663 92.3148C105.119 92.0903 104.654 91.7099 104.326 91.2214C103.998 90.733 103.822 90.1583 103.82 89.5699V84.141C103.818 78.8413 104.86 73.5932 106.888 68.6967C108.915 63.8002 111.888 59.3512 115.636 55.6042L125.178 46.0546L125.451 45.6419L120.337 40.4578L112.984 33.1469C111.78 31.9427 110.351 30.9874 108.778 30.3356C107.205 29.6838 105.519 29.3484 103.816 29.3484C102.113 29.3484 100.427 29.6838 98.854 30.3356C97.2809 30.9874 95.8516 31.9427 94.6477 33.1469L76.591 51.1967C74.1578 53.6254 70.8605 54.9895 67.4226 54.9895C63.9848 54.9895 60.6875 53.6254 58.2543 51.1967L40.1906 33.1469C38.9867 31.9427 37.5574 30.9874 35.9843 30.3356C34.4112 29.6838 32.7251 29.3484 31.0223 29.3484C29.3195 29.3484 27.6334 29.6838 26.0603 30.3356C24.4871 30.9874 23.0578 31.9427 21.854 33.1469L9.3031 45.6908L19.4683 55.8631C23.1317 59.527 26.0373 63.8769 28.0192 68.6641C30.001 73.4513 31.0203 78.582 31.0188 83.7632V89.563C31.0168 90.1513 30.8407 90.726 30.5126 91.2144C30.1845 91.7029 29.7192 92.0833 29.1753 92.3078C28.6314 92.5322 28.0333 92.5906 27.4562 92.4757C26.8792 92.3607 26.349 92.0775 25.9327 91.6618L3.79722 69.5263C2.11466 67.8461 0.92635 65.7357 0.362168 63.4258C0.15282 62.5683 0.0332434 61.6914 0.00536982 60.8093V60.5924C0.00536982 60.3965 0.00536982 60.2076 0.00536982 60.0187V31.335C-0.0397615 29.5791 0.273167 27.8324 0.925079 26.2015C1.57699 24.5705 2.55423 23.0893 3.79722 21.8483L21.854 3.79858C23.0578 2.59431 24.4871 1.63901 26.0603 0.987237C27.6334 0.335466 29.3195 0 31.0223 0C32.7251 0 34.4112 0.335466 35.9843 0.987237C37.5574 1.63901 38.9867 2.59431 40.1906 3.79858L58.2543 21.8553C59.4577 23.0604 60.8869 24.0165 62.4601 24.6688C64.0332 25.3211 65.7196 25.6568 67.4226 25.6568C69.1257 25.6568 70.812 25.3211 72.3852 24.6688C73.9584 24.0165 75.3876 23.0604 76.591 21.8553L94.6477 3.80558C95.8516 2.60131 97.2809 1.646 98.854 0.994232C100.427 0.342462 102.113 0.00699586 103.816 0.00699586C105.519 0.00699586 107.205 0.342462 108.778 0.994232C110.351 1.646 111.78 2.60131 112.984 3.80558L129.481 20.2952L131.048 21.8553C132.293 23.1021 133.271 24.5893 133.923 26.2262C134.575 27.8631 134.887 29.6156 134.84 31.3769L134.847 31.356Z" fill="#BCD674"/>
<path d="M134.847 31.356V35.4416L125.507 45.7398L125.451 45.6768L120.337 40.4718L129.397 20.1833L129.509 20.2812L131.076 21.8413C132.321 23.0881 133.299 24.5753 133.951 26.2122C134.603 27.8491 134.915 29.6016 134.868 31.3629L134.847 31.356Z" fill="url(#paint0_linear)"/>
<path d="M0.00508262 31.356V35.4417L9.33779 45.7398L9.40076 45.6769L14.5498 40.5068L5.48997 20.2183L5.37104 20.3162L3.80393 21.8484C2.555 23.0926 1.57373 24.5791 0.920447 26.2166C0.26716 27.854 -0.0443441 29.6077 0.00508262 31.37V31.356Z" fill="url(#paint1_linear)"/>
<defs>
<linearGradient id="paint0_linear" x1="132.201" y1="38.4578" x2="124.528" y2="31.6848" gradientUnits="userSpaceOnUse">
<stop offset="0.01" stop-color="#819743"/>
<stop offset="0.87" stop-color="#BCD674"/>
</linearGradient>
<linearGradient id="paint1_linear" x1="2.79841" y1="40.0171" x2="12.2999" y2="35.0254" gradientUnits="userSpaceOnUse">
<stop offset="0.01" stop-color="#819743"/>
<stop offset="0.87" stop-color="#BCD674"/>
</linearGradient>
</defs>
</svg>
